Results
version=1
nRows=19
nColumns=24
inDegrees=yes
endheader
time	pelvis_tilt	pelvis_list	pelvis_rotation	pelvis_tx	pelvis_ty	pelvis_tz	hip_flexion_r	hip_adduction_r	hip_rotation_r	knee_angle_r	ankle_angle_r	subtalar_angle_r	mtp_angle_r	hip_flexion_l	hip_adduction_l	hip_rotation_l	knee_angle_l	ankle_angle_l	subtalar_angle_l	mtp_angle_l	lumbar_extension	lumbar_bending	lumbar_rotation
      1.04966667	      2.05135118	     -5.40021554	      8.47016918	      0.53793010	      1.02452902	      0.27651746	     12.53614513	     11.16475053	     -4.32105121	    -22.62546445	      8.75487788	     -4.85059816	      8.97933129	     21.84271788	     -5.36884188	      3.09675470	    -58.20104286	      8.71733586	     -1.15996774	      7.11932136	     -1.30400024	      4.02724145	     -0.43457468
      1.05383333	      2.09799751	     -5.26792203	      8.23888559	      0.54217323	      1.02573770	      0.27692910	     11.97069549	     11.10121998	     -4.17531886	    -22.21753468	      8.82466476	     -4.58147823	      9.03123692	     22.04309279	     -5.18840117	      2.92772842	    -57.07315136	      8.62882013	     -2.05144395	      6.99050676	     -1.42543064	      3.90571491	     -0.20144360
      1.05800000	      2.15275161	     -5.14535997	      8.01854628	      0.54643602	      1.02694067	      0.27730571	     11.39348726	     11.03881259	     -4.06184680	    -21.79302443	      8.87608617	     -4.26830694	     10.01136571	     22.22101988	     -5.02140909	      2.76487795	    -55.91393746	      8.57277515	     -2.89245712	      4.53118634	     -1.54339219	      3.77606530	      0.10926240
      1.06216667	      2.18212005	     -5.02091281	      7.79365904	      0.55067862	      1.02803271	      0.27769456	     10.85127788	     10.97674214	     -3.90070703	    -21.38408665	      8.93205880	     -4.05450826	     10.01615971	     22.41287956	     -4.85390944	      2.60125774	    -54.71791081	      8.41529622	     -3.78172356	      4.48269861	     -1.63821115	      3.65594707	      0.26163447
      1.06633333	      2.22431464	     -4.89611071	      7.56602464	      0.55492884	      1.02911108	      0.27807250	     10.29709823	     10.91097529	     -3.74503898	    -20.97724945	      8.99039431	     -3.81187441	     10.02562306	     22.57056757	     -4.69532600	      2.43023263	    -53.48103398	      8.23300502	     -4.64064215	      4.40965919	     -1.75147197	      3.53956776	      0.45400863
      1.07050000	      2.25096770	     -4.77364697	      7.32016433	      0.55916274	      1.03009779	      0.27846032	      9.77203817	     10.84464918	     -3.56601642	    -20.59425295	      9.03990477	     -3.57462152	     10.03789658	     22.73010029	     -4.54613245	      2.24502422	    -52.21745653	      8.03997671	     -5.45947657	      4.32064449	     -1.85739957	      3.44361855	      0.63672518
      1.07466667	      2.29201899	     -4.66764855	      7.11046760	      0.56343265	      1.03106024	      0.27879805	      9.22279695	     10.78951929	     -3.43189399	    -20.18172357	      9.10744106	     -3.33638394	     10.05728178	     22.86797225	     -4.40754852	      2.10132095	    -50.92801410	      7.80034160	     -6.24723677	      4.18998475	     -1.94949497	      3.33046885	      0.85445102
      1.07883333	      2.30606003	     -4.57584871	      6.87513940	      0.56768055	      1.03189065	      0.27915466	      8.71827057	     10.74737102	     -3.26101781	    -19.79634941	      9.16526629	     -3.12385747	     10.07839678	     23.02708882	     -4.29518154	      1.92972810	    -49.62524519	      7.56241840	     -6.96107643	      4.04733906	     -2.01906016	      3.24855141	      1.03878646
      1.08300000	      2.33479943	     -4.47601202	      6.64266161	      0.57193575	      1.03270402	      0.27949965	      8.19918247	     10.69470804	     -3.09323057	    -19.41520345	      9.22378449	     -2.90981546	     10.10539325	     23.15009131	     -4.17614037	      1.76892450	    -48.28799656	      7.30031576	     -7.62572251	      3.87243320	     -2.10930120	      3.15752786	      1.23355341
      1.08716667	      2.32126697	     -4.39780323	      6.40283045	      0.57619759	      1.03337075	      0.27984755	      7.73438612	     10.65895872	     -2.91201414	    -19.04422953	      9.27966490	     -2.71497588	     10.13549692	     23.31569847	     -4.08051198	      1.60840062	    -46.94256738	      7.02771103	     -8.21835928	      3.68191753	     -2.14178776	      3.08677884	      1.41611946
      1.09133333	      2.33731662	     -4.32189129	      6.15425920	      0.58045457	      1.03402234	      0.28019348	      7.24527409	     10.62290345	     -2.74300568	    -18.68713620	      9.32772736	     -2.47147174	     10.59923834	     23.43661478	     -3.99854582	      1.43675559	    -45.58699809	      6.83423483	     -8.65555458	      0.99450010	     -2.21632805	      3.02734489	      1.65462470
      1.09550000	      2.31643974	     -4.26181918	      5.88557839	      0.58470682	      1.03453838	      0.28057889	      6.80333908	     10.60869970	     -2.50549429	    -18.34309017	      9.36534409	     -2.34774588	     10.60451277	     23.59021024	     -3.94277595	      1.24967168	    -44.21549311	      6.55473221	     -9.06451457	      0.95833253	     -2.25143277	      2.98537820	      1.74702927
      1.09966667	      2.31858015	     -4.22295456	      5.65753408	      0.58898628	      1.03502580	      0.28089501	      6.32586263	     10.60991204	     -2.32024225	    -17.96364184	      9.41927000	     -2.20923731	     10.61589778	     23.71729291	     -3.89359850	      1.12625129	    -42.83442785	      6.25542443	     -9.45805894	      0.89922648	     -2.28334046	      2.95122824	      1.93680642
      1.10383333	      2.30813377	     -4.18189357	      5.40081142	      0.59325754	      1.03543631	      0.28124694	      5.87551252	     10.60739830	     -2.10450352	    -17.61813172	      9.47008859	     -2.06363495	     10.63259673	     23.84217495	     -3.85598387	      0.97411087	    -41.43819961	      5.96239012	     -9.73329521	      0.82685954	     -2.31644802	      2.92190257	      2.11749314
      1.10800000	      2.26135949	     -4.16709381	      5.14051819	      0.59752632	      1.03570216	      0.28159783	      5.47427115	     10.62762465	     -1.88279979	    -17.28536884	      9.51745191	     -1.93184864	     10.65502467	     24.00928320	     -3.84485561	      0.83411934	    -40.05206218	      5.67485988	     -9.92758468	      0.74134343	     -2.30292978	      2.92056500	      2.29865084
      1.11216667	      2.22080703	     -4.15566023	      4.85764429	      0.60178296	      1.03591852	      0.28198652	      5.07938970	     10.65134428	     -1.64011319	    -16.98280762	      9.55609489	     -1.79498193	     10.67374829	     24.15886274	     -3.85572370	      0.66184431	    -38.65971578	      5.40106223	     -9.98579917	      0.67556200	     -2.31220181	      2.92805975	      2.42095205
      1.11633333	      2.18406758	     -4.15915501	      4.60332379	      0.60606237	      1.03608254	      0.28232250	      4.66765782	     10.68763108	     -1.41175352	    -16.64552839	      9.60143361	     -1.69180713	     10.71304307	     24.29957091	     -3.86134614	      0.56196102	    -37.26192166	      5.10770441	    -10.09289258	      0.55334235	     -2.30759751	      2.94313515	      2.66861444
      1.12050000	      2.12306578	     -4.16353916	      4.31243137	      0.61034357	      1.03615930	      0.28272246	      4.30356977	     10.72181759	     -1.16501876	    -16.36293013	      9.65948050	     -1.57654539	     10.73728188	     24.45566318	     -3.89614967	      0.39238882	    -35.86505115	      4.84711437	    -10.01902052	      0.48612628	     -2.27660224	      2.96144344	      2.77083487
      1.12466667	      2.08425714	     -4.17501833	      4.04048410	      0.61462996	      1.03620955	      0.28308913	      3.90357919	     10.76351963	     -0.91325756	    -16.05008877	      9.72059724	     -1.50216885	     10.78072584	     24.58050788	     -3.92568958	      0.27936116	    -34.46387732	      4.58156243	     -9.98723954	      0.37803233	     -2.26530205	      2.98928055	      3.00870552
